<?xml version="1.0" encoding="utf-8"?>
<!-- Generator: Adobe Illustrator 18.1.1, SVG Export Plug-In . SVG Version: 6.00 Build 0)  -->
<svg version="1.1" id="Layer_1" xmlns="http://www.w3.org/2000/svg" xmlns:xlink="http://www.w3.org/1999/xlink" x="0px" y="0px"
	 viewBox="0 0 400 350" enable-background="new 0 0 400 350" xml:space="preserve">
<circle fill="none" stroke="#5AC1A6" stroke-width="10" stroke-miterlimit="10" cx="199.1" cy="110.9" r="71"/>
<circle opacity="0.42" fill="none" stroke="#5AC1A6" stroke-width="10" stroke-miterlimit="10" cx="215.1" cy="127.5" r="71"/>
<line opacity="0.47" fill="none" stroke="#6D6D6D" stroke-width="6" stroke-miterlimit="10" x1="130.6" y1="191.3" x2="286.1" y2="39.9"/>
<circle opacity="0.47" fill="#6D6D6D" cx="123.4" cy="198.6" r="11"/>
<circle fill="#10BCE3" stroke="#10BCE3" stroke-miterlimit="10" cx="284.6" cy="40.6" r="11"/>
<g>
	<path fill="#242424" d="M29,279.1v-42h18.2c3.8,0,7,0.6,9.7,1.8c2.7,1.2,4.8,3,6.3,5.3c1.5,2.3,2.2,5,2.2,8.2
		c0,3.1-0.7,5.8-2.2,8.1c-1.5,2.3-3.6,4-6.3,5.3c-2.7,1.2-6,1.8-9.7,1.8H34.4l4.3-4.4v16H29z M38.8,264.2l-4.3-4.6h12.2
		c3,0,5.2-0.6,6.7-1.9c1.5-1.3,2.2-3.1,2.2-5.3c0-2.3-0.7-4.1-2.2-5.4c-1.5-1.3-3.7-1.9-6.7-1.9H34.4l4.3-4.6V264.2z"/>
	<path fill="#242424" d="M71.7,279.1v-32.3h8.9v9.1l-1.3-2.6c1-2.3,2.5-4,4.6-5.2c2.1-1.2,4.7-1.8,7.7-1.8v8.6
		c-0.4,0-0.8-0.1-1.1-0.1c-0.3,0-0.7,0-1,0c-2.6,0-4.6,0.7-6.2,2.2c-1.6,1.5-2.4,3.7-2.4,6.8v15.2H71.7z"/>
	<path fill="#242424" d="M112.4,279.6c-3.4,0-6.5-0.7-9.2-2.2c-2.7-1.4-4.8-3.4-6.3-5.9c-1.5-2.5-2.3-5.3-2.3-8.5
		c0-3.2,0.8-6.1,2.3-8.6c1.5-2.5,3.6-4.5,6.3-5.9c2.7-1.4,5.7-2.1,9.2-2.1c3.4,0,6.4,0.7,9.1,2.1c2.7,1.4,4.8,3.4,6.3,5.8
		c1.5,2.5,2.3,5.4,2.3,8.6c0,3.2-0.8,6-2.3,8.5c-1.5,2.5-3.6,4.5-6.3,5.9C118.8,278.9,115.8,279.6,112.4,279.6z M112.4,271.9
		c1.6,0,3-0.4,4.2-1.1c1.2-0.7,2.2-1.7,2.9-3.1c0.7-1.3,1.1-2.9,1.1-4.8c0-1.9-0.4-3.5-1.1-4.8c-0.7-1.3-1.7-2.3-2.9-3.1
		c-1.2-0.7-2.6-1.1-4.2-1.1s-3,0.4-4.2,1.1c-1.2,0.7-2.2,1.7-3,3.1c-0.7,1.3-1.1,2.9-1.1,4.8c0,1.8,0.4,3.4,1.1,4.8
		c0.7,1.3,1.7,2.4,3,3.1C109.4,271.5,110.8,271.9,112.4,271.9z"/>
	<path fill="#242424" d="M132.5,254.7v-7.2h22.4v7.2H132.5z M137.5,279.1v-33c0-3.6,1.1-6.5,3.2-8.7c2.2-2.2,5.2-3.3,9.2-3.3
		c1.4,0,2.7,0.1,3.9,0.4c1.3,0.3,2.3,0.7,3.2,1.3l-2.5,6.8c-0.5-0.4-1.1-0.6-1.7-0.8c-0.6-0.2-1.3-0.3-2-0.3c-1.4,0-2.4,0.4-3.1,1.2
		c-0.7,0.8-1.1,2-1.1,3.5v3l0.2,4v25.9H137.5z M164.8,242.3c-1.7,0-3.1-0.5-4.2-1.5c-1.1-1-1.6-2.2-1.6-3.7c0-1.5,0.5-2.7,1.6-3.7
		s2.5-1.5,4.2-1.5c1.7,0,3.1,0.5,4.2,1.4s1.6,2.2,1.6,3.6c0,1.6-0.5,2.8-1.6,3.9C168,241.8,166.6,242.3,164.8,242.3z M160.1,279.1
		v-32.3h9.4v32.3H160.1z"/>
	<path fill="#242424" d="M174.3,254.7v-7.2h22.4v7.2H174.3z M191.3,279.6c-3.8,0-6.8-1-8.9-2.9c-2.1-1.9-3.2-4.8-3.2-8.7v-28.3h9.4
		v28.2c0,1.4,0.4,2.4,1.1,3.1c0.7,0.7,1.7,1.1,2.9,1.1c1.5,0,2.7-0.4,3.8-1.2l2.5,6.6c-1,0.7-2.1,1.2-3.5,1.5
		C194.2,279.4,192.8,279.6,191.3,279.6z"/>
	<path fill="#242424" d="M215,279.1l-13.7-42h10.1l11.9,37.2h-5l12.5-37.2h9l12,37.2h-4.9l12.2-37.2h9.3l-13.7,42h-10.4l-10.6-32.6
		h2.8l-10.9,32.6H215z"/>
	<path fill="#242424" d="M280.7,279.6c-2.5,0-4.7-0.4-6.5-1.3c-1.8-0.9-3.2-2-4.1-3.5c-1-1.5-1.4-3.1-1.4-5c0-1.9,0.5-3.6,1.4-5
		c0.9-1.4,2.4-2.6,4.5-3.4c2-0.8,4.7-1.2,8-1.2h8.6v5.5h-7.6c-2.2,0-3.7,0.4-4.5,1.1c-0.8,0.7-1.2,1.6-1.2,2.7
		c0,1.2,0.5,2.2,1.4,2.8c0.9,0.7,2.2,1,3.9,1c1.6,0,3-0.4,4.2-1.1c1.2-0.7,2.1-1.8,2.7-3.3l1.4,4.3c-0.7,2.1-1.9,3.7-3.7,4.7
		S283.5,279.6,280.7,279.6z M290.5,279.1v-6.3l-0.6-1.4v-11.3c0-2-0.6-3.6-1.8-4.7c-1.2-1.1-3.1-1.7-5.6-1.7c-1.7,0-3.4,0.3-5.1,0.8
		c-1.7,0.5-3.1,1.3-4.2,2.2l-3.4-6.5c1.8-1.2,3.9-2.2,6.4-2.9c2.5-0.7,5-1,7.6-1c4.9,0,8.7,1.2,11.5,3.5c2.7,2.3,4.1,5.9,4.1,10.9
		v18.4H290.5z"/>
	<path fill="#242424" d="M315.9,279.1l-13.6-32.3h9.7l11.3,27.8h-4.8l11.7-27.8h9l-13.6,32.3H315.9z"/>
	<path fill="#242424" d="M358.1,279.6c-3.7,0-6.9-0.7-9.7-2.2c-2.8-1.4-4.9-3.4-6.5-5.9c-1.5-2.5-2.3-5.3-2.3-8.5
		c0-3.2,0.8-6.1,2.3-8.6c1.5-2.5,3.5-4.5,6.2-5.9c2.6-1.4,5.5-2.1,8.8-2.1c3.2,0,6,0.7,8.6,2c2.5,1.3,4.5,3.3,6,5.8
		c1.5,2.5,2.2,5.5,2.2,9c0,0.4,0,0.8-0.1,1.2c0,0.5-0.1,0.9-0.1,1.3h-26.2v-5.5h21.3l-3.6,1.6c0-1.7-0.3-3.1-1-4.4
		c-0.7-1.2-1.6-2.2-2.8-2.9c-1.2-0.7-2.6-1-4.2-1c-1.6,0-3,0.4-4.2,1c-1.2,0.7-2.2,1.7-2.8,2.9c-0.7,1.3-1,2.8-1,4.5v1.4
		c0,1.8,0.4,3.3,1.2,4.7c0.8,1.3,1.9,2.4,3.3,3.1c1.4,0.7,3.1,1.1,5,1.1c1.7,0,3.2-0.3,4.5-0.8c1.3-0.5,2.5-1.3,3.6-2.3l5,5.4
		c-1.5,1.7-3.3,3-5.6,3.9C363.6,279.1,361.1,279.6,358.1,279.6z"/>
</g>
<g>
	<path fill="#6D6D6D" d="M24,313.1l6.8-14h2.8l6.8,14h-2.9l-5.8-12.6h1.1l-5.8,12.6H24z M27.1,309.9l0.8-2H36l0.8,2H27.1z"/>
	<path fill="#6D6D6D" d="M55.2,313.3c-1.1,0-2.2-0.2-3.2-0.5s-1.8-0.9-2.6-1.5s-1.3-1.4-1.7-2.3c-0.4-0.9-0.6-1.8-0.6-2.9
		s0.2-2,0.6-2.9c0.4-0.9,1-1.6,1.7-2.3c0.7-0.6,1.6-1.1,2.6-1.5c1-0.4,2-0.5,3.2-0.5c1.2,0,2.4,0.2,3.4,0.6c1,0.4,1.9,1,2.6,1.8
		l-1.8,1.6c-0.5-0.5-1.2-1-1.8-1.2c-0.7-0.3-1.4-0.4-2.2-0.4c-0.8,0-1.5,0.1-2.2,0.4c-0.7,0.2-1.2,0.6-1.7,1s-0.9,1-1.1,1.6
		c-0.3,0.6-0.4,1.3-0.4,2s0.1,1.4,0.4,2c0.3,0.6,0.6,1.1,1.1,1.6s1,0.8,1.7,1c0.7,0.2,1.4,0.4,2.2,0.4c0.8,0,1.5-0.1,2.2-0.4
		c0.7-0.3,1.3-0.7,1.8-1.3l1.8,1.6c-0.7,0.8-1.6,1.3-2.6,1.7C57.5,313.1,56.4,313.3,55.2,313.3z"/>
	<path fill="#6D6D6D" d="M76.8,313.3c-1.1,0-2.2-0.2-3.2-0.5s-1.8-0.9-2.6-1.5s-1.3-1.4-1.7-2.3c-0.4-0.9-0.6-1.8-0.6-2.9
		s0.2-2,0.6-2.9c0.4-0.9,1-1.6,1.7-2.3c0.7-0.6,1.6-1.1,2.6-1.5c1-0.4,2-0.5,3.2-0.5c1.2,0,2.4,0.2,3.4,0.6c1,0.4,1.9,1,2.6,1.8
		l-1.8,1.6c-0.5-0.5-1.2-1-1.8-1.2c-0.7-0.3-1.4-0.4-2.2-0.4c-0.8,0-1.5,0.1-2.2,0.4c-0.7,0.2-1.2,0.6-1.7,1s-0.9,1-1.1,1.6
		c-0.3,0.6-0.4,1.3-0.4,2s0.1,1.4,0.4,2c0.3,0.6,0.6,1.1,1.1,1.6s1,0.8,1.7,1c0.7,0.2,1.4,0.4,2.2,0.4c0.8,0,1.5-0.1,2.2-0.4
		c0.7-0.3,1.3-0.7,1.8-1.3l1.8,1.6c-0.7,0.8-1.6,1.3-2.6,1.7C79.1,313.1,78,313.3,76.8,313.3z"/>
	<path fill="#6D6D6D" d="M98.4,313.3c-1.2,0-2.3-0.2-3.3-0.5c-1-0.4-1.9-0.9-2.6-1.5c-0.7-0.6-1.3-1.4-1.7-2.3
		c-0.4-0.9-0.6-1.8-0.6-2.9s0.2-2,0.6-2.9c0.4-0.9,1-1.6,1.7-2.3c0.7-0.6,1.6-1.1,2.6-1.5c1-0.4,2.1-0.5,3.2-0.5
		c1.2,0,2.3,0.2,3.2,0.5c1,0.4,1.8,0.9,2.6,1.5c0.7,0.6,1.3,1.4,1.7,2.3c0.4,0.9,0.6,1.8,0.6,2.9s-0.2,2-0.6,2.9
		c-0.4,0.9-1,1.6-1.7,2.3c-0.7,0.6-1.6,1.1-2.6,1.5C100.7,313.2,99.6,313.3,98.4,313.3z M98.4,311.1c0.8,0,1.5-0.1,2.1-0.4
		c0.6-0.2,1.2-0.6,1.7-1c0.5-0.4,0.8-1,1.1-1.6c0.3-0.6,0.4-1.3,0.4-2s-0.1-1.4-0.4-2c-0.3-0.6-0.6-1.1-1.1-1.6
		c-0.5-0.4-1-0.8-1.7-1c-0.6-0.2-1.3-0.4-2.1-0.4s-1.5,0.1-2.1,0.4c-0.6,0.2-1.2,0.6-1.7,1c-0.5,0.4-0.9,1-1.1,1.6
		c-0.3,0.6-0.4,1.3-0.4,2c0,0.7,0.1,1.4,0.4,2c0.3,0.6,0.6,1.1,1.1,1.6c0.5,0.4,1,0.8,1.7,1C97,310.9,97.7,311.1,98.4,311.1z"/>
	<path fill="#6D6D6D" d="M121.9,313.3c-2.1,0-3.7-0.5-4.9-1.6s-1.8-2.6-1.8-4.7v-7.9h2.8v7.8c0,1.4,0.3,2.5,1,3.1
		c0.7,0.7,1.6,1,2.8,1c1.2,0,2.2-0.3,2.8-1c0.7-0.7,1-1.7,1-3.1v-7.8h2.8v7.9c0,2-0.6,3.6-1.8,4.7
		C125.6,312.8,124,313.3,121.9,313.3z"/>
	<path fill="#6D6D6D" d="M138.4,313.1v-14h2.3l9.5,10.8H149v-10.8h2.8v14h-2.3l-9.5-10.8h1.1v10.8H138.4z"/>
	<path fill="#6D6D6D" d="M164.8,313.1v-11.8h-5v-2.2h12.8v2.2h-5v11.8H164.8z"/>
	<path fill="#6D6D6D" d="M180.7,313.1v-14h2.8v14H180.7z"/>
	<path fill="#6D6D6D" d="M193.5,313.1v-14h2.3l9.5,10.8h-1.1v-10.8h2.8v14h-2.3l-9.5-10.8h1.1v10.8H193.5z"/>
	<path fill="#6D6D6D" d="M223.9,313.3c-1.2,0-2.3-0.2-3.2-0.5c-1-0.4-1.8-0.9-2.6-1.5s-1.3-1.4-1.7-2.3c-0.4-0.9-0.6-1.8-0.6-2.9
		s0.2-2,0.6-2.9c0.4-0.9,1-1.6,1.7-2.3s1.6-1.1,2.6-1.5c1-0.4,2.1-0.5,3.3-0.5c1.3,0,2.4,0.2,3.5,0.6s1.9,1,2.6,1.7l-1.8,1.6
		c-0.6-0.5-1.2-0.9-1.9-1.2c-0.7-0.3-1.4-0.4-2.3-0.4c-0.8,0-1.5,0.1-2.2,0.4c-0.7,0.2-1.3,0.6-1.7,1s-0.9,1-1.1,1.6
		c-0.3,0.6-0.4,1.3-0.4,2c0,0.7,0.1,1.4,0.4,2s0.6,1.1,1.1,1.6c0.5,0.4,1.1,0.8,1.7,1c0.7,0.2,1.4,0.4,2.2,0.4
		c0.7,0,1.5-0.1,2.2-0.3s1.4-0.6,2-1.1l1.6,1.9c-0.8,0.6-1.7,1-2.7,1.3C226,313.2,225,313.3,223.9,313.3z M227.2,311.2V306h2.6v5.6
		L227.2,311.2z"/>
	<path fill="#6D6D6D" d="M262,313.3c-1.2,0-2.3-0.2-3.4-0.5c-1.1-0.3-1.9-0.7-2.6-1.2l1-2c0.6,0.4,1.3,0.8,2.2,1.1
		c0.9,0.3,1.8,0.4,2.7,0.4c0.8,0,1.4-0.1,1.9-0.2c0.5-0.2,0.8-0.4,1.1-0.6s0.3-0.6,0.3-0.9c0-0.4-0.2-0.8-0.5-1
		c-0.3-0.3-0.8-0.5-1.3-0.6c-0.5-0.2-1.1-0.3-1.7-0.4c-0.6-0.1-1.3-0.3-1.9-0.5c-0.6-0.2-1.2-0.4-1.7-0.7c-0.5-0.3-1-0.7-1.3-1.1
		c-0.3-0.5-0.5-1.1-0.5-1.8c0-0.8,0.2-1.5,0.7-2.1c0.4-0.6,1.1-1.1,2-1.5s2-0.6,3.4-0.6c0.9,0,1.8,0.1,2.7,0.3
		c0.9,0.2,1.7,0.5,2.3,0.9l-0.9,2c-0.7-0.4-1.4-0.6-2.1-0.8c-0.7-0.2-1.4-0.3-2.1-0.3c-0.8,0-1.4,0.1-1.9,0.3
		c-0.5,0.2-0.8,0.4-1.1,0.7c-0.2,0.3-0.3,0.6-0.3,1c0,0.4,0.2,0.8,0.5,1c0.3,0.3,0.7,0.5,1.3,0.6s1.1,0.3,1.8,0.4
		c0.6,0.1,1.3,0.3,1.9,0.5c0.6,0.2,1.2,0.4,1.7,0.7c0.5,0.3,0.9,0.7,1.3,1.1c0.3,0.5,0.5,1.1,0.5,1.8c0,0.7-0.2,1.4-0.7,2.1
		c-0.4,0.6-1.1,1.1-2,1.5C264.5,313.1,263.3,313.3,262,313.3z"/>
	<path fill="#6D6D6D" d="M280.5,313.1v-5.5l0.6,1.6l-6.5-10.1h3l5.3,8.1h-1.7l5.3-8.1h2.8l-6.5,10.1l0.6-1.6v5.5H280.5z"/>
	<path fill="#6D6D6D" d="M301.6,313.3c-1.2,0-2.3-0.2-3.4-0.5c-1.1-0.3-1.9-0.7-2.6-1.2l1-2c0.6,0.4,1.3,0.8,2.2,1.1
		c0.9,0.3,1.8,0.4,2.7,0.4c0.8,0,1.4-0.1,1.9-0.2c0.5-0.2,0.8-0.4,1.1-0.6s0.3-0.6,0.3-0.9c0-0.4-0.2-0.8-0.5-1
		c-0.3-0.3-0.8-0.5-1.3-0.6c-0.5-0.2-1.1-0.3-1.7-0.4c-0.6-0.1-1.3-0.3-1.9-0.5c-0.6-0.2-1.2-0.4-1.7-0.7c-0.5-0.3-1-0.7-1.3-1.1
		c-0.3-0.5-0.5-1.1-0.5-1.8c0-0.8,0.2-1.5,0.7-2.1c0.4-0.6,1.1-1.1,2-1.5s2-0.6,3.4-0.6c0.9,0,1.8,0.1,2.7,0.3
		c0.9,0.2,1.7,0.5,2.3,0.9l-0.9,2c-0.7-0.4-1.4-0.6-2.1-0.8c-0.7-0.2-1.4-0.3-2.1-0.3c-0.8,0-1.4,0.1-1.9,0.3
		c-0.5,0.2-0.8,0.4-1.1,0.7c-0.2,0.3-0.3,0.6-0.3,1c0,0.4,0.2,0.8,0.5,1c0.3,0.3,0.7,0.5,1.3,0.6s1.1,0.3,1.8,0.4
		c0.6,0.1,1.3,0.3,1.9,0.5c0.6,0.2,1.2,0.4,1.7,0.7c0.5,0.3,0.9,0.7,1.3,1.1c0.3,0.5,0.5,1.1,0.5,1.8c0,0.7-0.2,1.4-0.7,2.1
		c-0.4,0.6-1.1,1.1-2,1.5C304.2,313.1,303,313.3,301.6,313.3z"/>
	<path fill="#6D6D6D" d="M319.5,313.1v-11.8h-5v-2.2h12.8v2.2h-5v11.8H319.5z"/>
	<path fill="#6D6D6D" d="M338.2,311h8.5v2.2h-11.3v-14h11v2.2h-8.2V311z M337.9,305h7.5v2.1h-7.5V305z"/>
	<path fill="#6D6D6D" d="M355.7,313.1v-14h2.3l6.6,10.2h-1.2l6.5-10.2h2.3l0,14h-2.6l0-10.1h0.6l-5.5,8.5h-1.2l-5.6-8.5h0.6v10.1
		H355.7z"/>
</g>
</svg>
