<?xml version="1.0" encoding="UTF-8"?>
<svg xmlns="http://www.w3.org/2000/svg" xmlns:xlink="http://www.w3.org/1999/xlink" xmlns:svgjs="http://svgjs.com/svgjs" version="1.1" width="512" height="512" x="0" y="0" viewBox="0 0 16 16" style="enable-background:new 0 0 512 512" xml:space="preserve">
  <g>
    <path d="M14.567 5.521a.5.5 0 0 0-.336.622A6.493 6.493 0 1 1 9.857 1.77a.5.5 0 0 0 .286-.958 7.493 7.493 0 1 0 5.046 5.046.499.499 0 0 0-.622-.336z" fill="#666666" data-original="#000000" opacity="1"/>
    <path d="M7.5 6.5h2a.5.5 0 0 0 0-1h-1V5a.5.5 0 0 0-1 0v.5a1.5 1.5 0 0 0 0 3h1a.5.5 0 0 1 0 1h-2a.5.5 0 0 0 0 1h1v.5a.5.5 0 0 0 1 0v-.5a1.5 1.5 0 0 0 0-3h-1a.5.5 0 0 1 0-1zM15 2.5h-1.5V1a.5.5 0 0 0-1 0v1.5H11a.5.5 0 0 0 0 1h1.5V5a.5.5 0 0 0 1 0V3.5H15a.5.5 0 0 0 0-1z" fill="#666666" data-original="#000000" opacity="1"/>
  </g>
</svg>
